<svg width="1161" height="288" viewBox="0 0 1161 288" fill="none" xmlns="http://www.w3.org/2000/svg">
<path d="M40 40H115.865C173.302 40 219.865 86.5624 219.865 144C219.865 201.438 173.302 248 115.865 248H40V40Z" fill="#8EECF9"/>
<path d="M40 68H106C155.706 68 196 108.294 196 158C196 207.706 155.706 248 106 248H40V68Z" fill="#00BEED"/>
<path d="M40 95H96.5C138.75 95 173 129.25 173 171.5C173 213.75 138.75 248 96.5 248H40V95Z" fill="#007CFA"/>
<path d="M40 124H84C118.242 124 146 151.758 146 186C146 220.242 118.242 248 84 248H40V124Z" fill="#0048DD"/>
<path d="M40 152H75C101.51 152 123 173.49 123 200C123 226.51 101.51 248 75 248H40V152Z" fill="#002ECF"/>
<path d="M344.843 187.426C338.922 187.426 333.469 186.337 328.483 184.158C323.497 181.979 319.134 178.918 315.395 174.974C311.76 171.031 308.903 166.466 306.826 161.277C304.852 156.089 303.865 150.485 303.865 144.467V141.665C303.865 135.751 304.852 130.199 306.826 125.011C308.799 119.822 311.552 115.257 315.083 111.313C318.719 107.37 322.978 104.309 327.86 102.13C332.846 99.8472 338.351 98.7057 344.375 98.7057C350.712 98.7057 356.476 100.055 361.67 102.753C366.864 105.347 371.122 109.446 374.446 115.049C377.77 120.652 379.64 127.916 380.055 136.84L373.823 126.878V71H388.781V184.625H376.939V147.736H381.302C380.886 157.178 378.913 164.857 375.381 170.772C371.849 176.583 367.383 180.837 361.982 183.535C356.684 186.129 350.971 187.426 344.843 187.426ZM346.868 174.352C351.958 174.352 356.58 173.21 360.735 170.927C364.89 168.645 368.214 165.376 370.707 161.122C373.2 156.763 374.446 151.679 374.446 145.868V138.708C374.446 133.001 373.148 128.176 370.551 124.232C368.058 120.185 364.682 117.124 360.424 115.049C356.269 112.87 351.698 111.78 346.712 111.78C341.207 111.78 336.325 113.077 332.066 115.672C327.912 118.266 324.64 121.898 322.251 126.567C319.965 131.237 318.823 136.736 318.823 143.066C318.823 149.396 320.017 154.947 322.406 159.721C324.795 164.39 328.119 168.022 332.378 170.616C336.637 173.107 341.467 174.352 346.868 174.352Z" fill="#000F1D"/>
<path d="M467.846 184.625V159.721H465.353V130.925C465.353 125.218 463.847 120.912 460.835 118.006C457.926 115.101 453.615 113.648 447.902 113.648C444.682 113.648 441.359 113.7 437.931 113.804C434.503 113.908 431.231 114.011 428.115 114.115C424.999 114.219 422.298 114.375 420.013 114.582V101.507C422.298 101.3 424.687 101.144 427.18 101.041C429.777 100.833 432.426 100.729 435.126 100.729C437.827 100.625 440.424 100.574 442.917 100.574C451.434 100.574 458.394 101.611 463.795 103.687C469.196 105.658 473.195 108.927 475.792 113.493C478.389 118.058 479.687 124.232 479.687 132.015V184.625H467.846ZM440.58 186.804C434.347 186.804 428.946 185.766 424.375 183.691C419.909 181.512 416.429 178.399 413.936 174.352C411.547 170.305 410.353 165.428 410.353 159.721C410.353 153.806 411.651 148.877 414.248 144.934C416.949 140.991 420.844 138.033 425.934 136.062C431.023 133.986 437.152 132.949 444.319 132.949H466.911V144.156H443.696C437.671 144.156 433.049 145.608 429.829 148.514C426.609 151.419 424.999 155.155 424.999 159.721C424.999 164.286 426.609 167.97 429.829 170.772C433.049 173.574 437.671 174.974 443.696 174.974C447.227 174.974 450.603 174.352 453.823 173.107C457.043 171.758 459.692 169.579 461.769 166.569C463.951 163.456 465.145 159.202 465.353 153.806L469.404 159.721C468.885 165.635 467.43 170.616 465.041 174.663C462.756 178.606 459.536 181.615 455.381 183.691C451.33 185.766 446.396 186.804 440.58 186.804Z" fill="#000F1D"/>
<path d="M539.548 185.559C533.316 185.559 527.914 184.677 523.344 182.913C518.878 181.149 515.398 178.139 512.905 173.885C510.516 169.527 509.321 163.664 509.321 156.296V76.2921H523.656V158.164C523.656 162.626 524.85 166.102 527.239 168.593C529.732 170.979 533.212 172.173 537.678 172.173H552.324V185.559H539.548ZM494.987 112.714V101.507H552.324V112.714H494.987Z" fill="#000F1D"/>
<path d="M611.2 187.426C603.929 187.426 597.541 186.181 592.036 183.691C586.531 181.2 581.856 177.932 578.013 173.885C574.274 169.734 571.417 165.117 569.444 160.032C567.574 154.947 566.639 149.759 566.639 144.467V141.665C566.639 136.373 567.626 131.185 569.6 126.1C571.573 120.912 574.482 116.294 578.325 112.247C582.168 108.097 586.842 104.828 592.348 102.441C597.853 99.951 604.137 98.7057 611.2 98.7057C618.264 98.7057 624.548 99.951 630.053 102.441C635.558 104.828 640.233 108.097 644.076 112.247C647.919 116.294 650.827 120.912 652.801 126.1C654.775 131.185 655.761 136.373 655.761 141.665V144.467C655.761 149.759 654.775 154.947 652.801 160.032C650.931 165.117 648.075 169.734 644.232 173.885C640.492 177.932 635.87 181.2 630.365 183.691C624.859 186.181 618.471 187.426 611.2 187.426ZM611.2 174.041C617.433 174.041 622.73 172.692 627.093 169.994C631.559 167.192 634.935 163.456 637.22 158.787C639.609 154.117 640.804 148.877 640.804 143.066C640.804 137.151 639.609 131.859 637.22 127.19C634.831 122.52 631.403 118.837 626.937 116.139C622.574 113.441 617.329 112.092 611.2 112.092C605.176 112.092 599.93 113.441 595.464 116.139C590.997 118.837 587.569 122.52 585.18 127.19C582.791 131.859 581.597 137.151 581.597 143.066C581.597 148.877 582.739 154.117 585.025 158.787C587.414 163.456 590.789 167.192 595.152 169.994C599.619 172.692 604.968 174.041 611.2 174.041Z" fill="#000F1D"/>
<path d="M679.099 184.625V71H694.056V184.625H679.099ZM667.569 82.8294V71H694.056V82.8294H667.569Z" fill="#000F1D"/>
<path d="M761.074 187.426C753.803 187.426 747.415 186.181 741.91 183.691C736.405 181.2 731.73 177.932 727.887 173.885C724.148 169.734 721.291 165.117 719.318 160.032C717.448 154.947 716.513 149.759 716.513 144.467V141.665C716.513 136.373 717.5 131.185 719.474 126.1C721.447 120.912 724.355 116.294 728.199 112.247C732.042 108.097 736.716 104.828 742.221 102.441C747.727 99.951 754.011 98.7057 761.074 98.7057C768.138 98.7057 774.422 99.951 779.927 102.441C785.432 104.828 790.107 108.097 793.95 112.247C797.793 116.294 800.701 120.912 802.675 126.1C804.649 131.185 805.635 136.373 805.635 141.665V144.467C805.635 149.759 804.649 154.947 802.675 160.032C800.805 165.117 797.949 169.734 794.106 173.885C790.366 177.932 785.744 181.2 780.239 183.691C774.733 186.181 768.345 187.426 761.074 187.426ZM761.074 174.041C767.307 174.041 772.604 172.692 776.967 169.994C781.433 167.192 784.809 163.456 787.094 158.787C789.483 154.117 790.678 148.877 790.678 143.066C790.678 137.151 789.483 131.859 787.094 127.19C784.705 122.52 781.277 118.837 776.811 116.139C772.448 113.441 767.203 112.092 761.074 112.092C755.05 112.092 749.804 113.441 745.338 116.139C740.871 118.837 737.443 122.52 735.054 127.19C732.665 131.859 731.471 137.151 731.471 143.066C731.471 148.877 732.613 154.117 734.899 158.787C737.288 163.456 740.663 167.192 745.026 169.994C749.493 172.692 754.842 174.041 761.074 174.041Z" fill="#000F1D"/>
<path d="M859.511 217C855.668 217 851.772 216.844 847.825 216.533C843.982 216.222 840.295 215.807 836.763 215.288V202.68C840.502 203.199 844.397 203.614 848.448 203.925C852.603 204.34 856.499 204.548 860.134 204.548C867.717 204.548 873.741 203.51 878.208 201.435C882.778 199.463 886.05 196.299 888.024 191.94C890.101 187.686 891.14 182.186 891.14 175.441V159.565L896.126 147.736C895.814 156.141 894.048 163.145 890.828 168.748C887.608 174.248 883.401 178.399 878.208 181.2C873.118 183.898 867.457 185.247 861.225 185.247C855.408 185.247 850.059 184.158 845.177 181.979C840.398 179.696 836.244 176.583 832.712 172.64C829.284 168.697 826.583 164.183 824.61 159.098C822.74 153.91 821.805 148.462 821.805 142.755V139.953C821.805 134.142 822.792 128.746 824.766 123.765C826.739 118.681 829.492 114.271 833.023 110.535C836.555 106.8 840.762 103.894 845.644 101.819C850.63 99.7434 856.083 98.7057 862.004 98.7057C868.963 98.7057 875.092 100.21 880.389 103.22C885.687 106.125 889.842 110.431 892.854 116.139C895.97 121.742 897.684 128.642 897.995 136.84L893.633 136.996V101.507H905.474V174.819C905.474 184.78 903.916 192.822 900.8 198.945C897.788 205.171 892.906 209.736 886.154 212.642C879.506 215.547 870.625 217 859.511 217ZM864.029 171.55C869.015 171.55 873.534 170.461 877.585 168.281C881.74 166.102 885.012 162.989 887.401 158.942C889.893 154.792 891.14 149.863 891.14 144.156V136.996C891.14 131.392 889.842 126.671 887.245 122.832C884.752 118.992 881.48 116.087 877.429 114.115C873.378 112.144 868.963 111.158 864.185 111.158C858.784 111.158 854.006 112.403 849.851 114.893C845.696 117.384 842.476 120.912 840.191 125.478C837.906 129.94 836.763 135.232 836.763 141.354C836.763 147.476 837.906 152.82 840.191 157.386C842.58 161.952 845.8 165.48 849.851 167.97C854.006 170.357 858.732 171.55 864.029 171.55Z" fill="#000F1D"/>
<path d="M927.569 217V203.614H939.566C943.097 203.614 946.058 203.147 948.447 202.213C950.94 201.383 952.965 199.93 954.523 197.855C956.185 195.78 957.536 193.03 958.574 189.606L984.75 101.507H999.396L971.662 193.497C970 198.996 967.663 203.458 964.651 206.883C961.639 210.411 957.951 212.953 953.589 214.51C949.33 216.17 944.344 217 938.631 217H927.569ZM952.965 182.757V170.305H971.039V182.757H952.965ZM951.407 182.757L921.648 101.507H936.917L965.43 182.757H951.407Z" fill="#000F1D"/>
<path d="M1070.11 184.625V160.188H1068.56V130.147C1068.56 123.61 1066.84 118.577 1063.41 115.049C1059.99 111.417 1054.32 109.601 1046.43 109.601C1043.63 109.601 1040.77 109.705 1037.86 109.913C1034.95 110.016 1032.2 110.172 1029.6 110.38C1027.01 110.483 1024.67 110.691 1022.59 111.002V103.531C1024.67 103.22 1026.85 102.96 1029.14 102.753C1031.53 102.545 1033.91 102.389 1036.3 102.286C1038.69 102.182 1040.98 102.13 1043.16 102.13C1051.36 102.13 1057.91 103.22 1062.79 105.399C1067.67 107.474 1071.2 110.691 1073.39 115.049C1075.57 119.303 1076.66 124.751 1076.66 131.392V184.625H1070.11ZM1041.6 186.804C1036.1 186.804 1031.16 185.818 1026.8 183.846C1022.44 181.875 1018.96 178.969 1016.36 175.13C1013.87 171.291 1012.62 166.621 1012.62 161.122C1012.62 155.829 1013.81 151.316 1016.2 147.58C1018.7 143.844 1022.23 140.991 1026.8 139.019C1031.47 137.048 1037.08 136.062 1043.63 136.062H1069.33V142.755H1042.85C1035.78 142.755 1030.33 144.467 1026.49 147.891C1022.75 151.212 1020.88 155.622 1020.88 161.122C1020.88 166.932 1022.9 171.55 1026.95 174.974C1031.01 178.295 1036.3 179.955 1042.85 179.955C1046.9 179.955 1050.85 179.177 1054.69 177.62C1058.53 176.064 1061.75 173.47 1064.35 169.838C1066.95 166.102 1068.35 161.122 1068.56 154.896L1071.67 158.475C1071.36 164.805 1069.8 170.097 1067 174.352C1064.3 178.502 1060.76 181.615 1056.4 183.691C1052.04 185.766 1047.11 186.804 1041.6 186.804Z" fill="#000F1D"/>
<path d="M1111.95 184.625V102.908H1120.37V184.625H1111.95ZM1098.4 110.068V102.908H1120.37V110.068H1098.4ZM1112.73 85.7868C1110.55 85.7868 1108.89 85.2161 1107.74 84.0746C1106.6 82.8294 1106.03 81.2729 1106.03 79.4051C1106.03 77.4335 1106.6 75.8252 1107.74 74.58C1108.89 73.3348 1110.6 72.7122 1112.89 72.7122C1115.07 72.7122 1116.73 73.3348 1117.87 74.58C1119.01 75.8252 1119.59 77.4335 1119.59 79.4051C1119.59 81.2729 1119.01 82.8294 1117.87 84.0746C1116.83 85.2161 1115.12 85.7868 1112.73 85.7868Z" fill="#000F1D"/>
</svg>
